<svg width="48" height="48" viewBox="0 0 512 512" fill="none" xmlns="http://www.w3.org/2000/svg">
<g clip-path="url(#clip0)">
<path d="M484.501 42.667H27.499C12.316 42.678 0.012 54.983 0 70.165V441.834C0.012 457.016 12.316 469.321 27.499 469.333H484.502C499.684 469.321 511.989 457.017 512.001 441.834V70.165C511.988 54.983 499.684 42.678 484.501 42.667ZM490.667 441.835C490.667 445.24 487.907 448 484.502 448H27.499C24.094 448 21.334 445.24 21.334 441.835V266.667H97.846C100.576 266.668 103.203 265.622 105.185 263.744L134.305 236.171L159.393 304.608C161.417 310.14 167.543 312.984 173.075 310.96C176.393 309.746 178.895 306.968 179.755 303.541L214.4 164.373L230.325 405.568C230.662 410.662 234.562 414.803 239.626 415.445C240.075 415.502 240.528 415.53 240.981 415.53C245.58 415.528 249.66 412.579 251.104 408.213L304.437 247.146L333.728 304.437C335.584 308.053 338.859 310.069 343.413 310.25C347.482 310.18 351.156 307.801 352.885 304.117L370.41 266.666H410.794C415.79 273.361 423.646 277.313 431.999 277.333C450.708 277.333 458.666 269.365 458.666 250.666C458.681 235.938 446.754 223.987 432.026 223.973C419.334 223.96 408.392 232.895 405.866 245.333H363.626C359.491 245.334 355.73 247.724 353.973 251.466L342.762 275.37L311.829 214.751C309.149 209.505 302.724 207.424 297.478 210.104C294.979 211.381 293.084 213.59 292.203 216.255L248 349.653L231.168 94.837C230.855 88.954 225.833 84.439 219.95 84.751C215.218 85.002 211.219 88.346 210.133 92.959L167.466 264.618L148.778 213.61C146.749 208.079 140.62 205.241 135.09 207.27C133.73 207.769 132.486 208.54 131.434 209.535L93.589 245.332H21.333V70.165C21.333 66.76 24.093 64 27.498 64H484.501C487.906 64 490.666 66.76 490.666 70.165V441.835H490.667Z" fill="white"/>
</g>
<defs>
<clipPath id="clip0">
<rect width="512" height="512" fill="white"/>
</clipPath>
</defs>
</svg>
